<svg xmlns="http://www.w3.org/2000/svg" viewBox="0 0 1000 1000"><defs><style>.cls-1{fill:currentColor;}</style></defs><path class="cls-1" d="M276.25,603.25v63.34H261.32V651.12c0-15,.54-22.44.45-22.44h-.09c-.09,0-5.16,8.68-5.7,9.59l-7.42,12.67h-7.87l-7.42-12.67c-.54-.91-5.61-9.59-5.7-9.59h-.09c-.09,0,.45,7.42.45,22.44v15.47H213V603.25h14.3l11.85,19.18c4.62,7.51,5.34,9.14,5.43,9.14h.09c.09,0,.81-1.63,5.43-9.14L262,603.25Z"/><polygon class="cls-1" points="336.96 652.38 336.96 666.59 290.36 666.59 290.36 603.25 336.42 603.25 336.42 617.46 305.56 617.46 305.56 627.87 329.72 627.87 329.72 641.16 305.56 641.16 305.56 652.38 336.96 652.38"/><path class="cls-1" d="M407.17,603.25v63.34H392.88L379.94,649c-5.79-8-14.31-20-14.39-20h-.09c-.1,0,.09,9.77.09,23.61v14h-15.2V603.25h14.3l13.48,18.1c4.07,5.43,13.75,19.09,13.84,19.09h.09c.09,0-.09-11.22-.09-22.71V603.25Z"/><path class="cls-1" d="M449.51,602c18.19,0,32.94,13.85,32.94,32.94s-14.75,32.94-32.94,32.94S416.67,654,416.67,634.92,431.32,602,449.51,602m0,50.86c10.32,0,17.11-7.33,17.11-17.92S459.83,617,449.51,617s-17,7.23-17,17.91,6.79,17.92,17,17.92"/><path class="cls-1" d="M555.2,603.25v63.34H540.26V651.12c0-15,.54-22.44.46-22.44h-.09c-.1,0-5.16,8.68-5.7,9.59l-7.43,12.67h-7.87l-7.42-12.67c-.54-.91-5.6-9.59-5.7-9.59h-.09c-.09,0,.46,7.42.46,22.44v15.47H491.94V603.25h14.3l11.85,19.18c4.62,7.51,5.34,9.14,5.43,9.14h.09c.09,0,.82-1.63,5.43-9.14l11.86-19.18Z"/><path class="cls-1" d="M605.5,656.64H580.43l-3.62,10H560.44l25.33-63.34h14.39l25.34,63.34H609.12Zm-4.88-13.3L596.09,631c-1.36-3.62-3-9.32-3.08-9.32h-.09c-.09,0-1.72,5.7-3.08,9.32l-4.52,12.31Z"/><path class="cls-1" d="M658.52,603.25c18.09,0,32.75,12.94,32.75,31.94s-14.66,31.4-32.75,31.4H630.83V603.25Zm0,49.13c9.05,0,16.92-6.33,16.92-17.19s-7.87-17.73-16.92-17.73H646v34.92Z"/><rect class="cls-1" x="700.86" y="603.25" width="15.2" height="63.34"/><path class="cls-1" d="M787,603.25v63.34H772.7L759.76,649c-5.79-8-14.29-20-14.38-20h-.1c-.08,0,.1,9.77.1,23.61v14H730.17V603.25h14.3L758,621.35c4.08,5.43,13.76,19.09,13.85,19.09h.09c.09,0-.09-11.22-.09-22.71V603.25Z"/><path class="cls-1" d="M500,219,346.4,372.62,500,526.21,653.6,372.62Zm0,26.58,32.88,32.87-127,127L373,372.62Zm127,127L593.54,406.1l-80.85-80.86,33.48-33.48Zm-46.77,46.77-33.48,33.48L465.92,372l33.48-33.48Zm-46.77,46.77L500,499.64l-80.85-80.86,33.48-33.48Z"/><path class="cls-1" d="M390.47,775.18l-.27.45a16.71,16.71,0,0,1-3.36,2.73,25.41,25.41,0,0,1-4.35,2,42.29,42.29,0,0,1-4.72,1.18A29.88,29.88,0,0,1,373,782a34.9,34.9,0,0,1-12.79-2.36,33.4,33.4,0,0,1-10.43-6.8,32.37,32.37,0,0,1-7.08-10.52,35.62,35.62,0,0,1,.1-26.67,32.24,32.24,0,0,1,7.07-10.53,31.85,31.85,0,0,1,10.52-6.8,33.38,33.38,0,0,1,12.8-2.45,32.8,32.8,0,0,1,17,4.54,31.85,31.85,0,0,1,12,12.24l-15.51,4.08a16,16,0,0,0-6-4.35,18.31,18.31,0,0,0-7.43-1.63,17.74,17.74,0,0,0-7.08,1.36,15.22,15.22,0,0,0-5.35,3.72,16,16,0,0,0-3.36,5.62,20.42,20.42,0,0,0-1.18,7.17,20.75,20.75,0,0,0,1.36,7.62,17,17,0,0,0,3.72,5.71,15.73,15.73,0,0,0,5.63,3.54,22.46,22.46,0,0,0,13.78.36,20.87,20.87,0,0,0,4.81-2.35,12.71,12.71,0,0,0,3.27-3.18,17.9,17.9,0,0,0,1.9-3.54v-.09H374V744.43h29.67v35.92H390.56v-5.17Z"/><path class="cls-1" d="M449,780.44l-11.88-20.59h-7.8v20.59H414.07V717h23.68a32.91,32.91,0,0,1,10.8,1.63,25,25,0,0,1,8.07,4.45,19.08,19.08,0,0,1,5.08,6.8,21.61,21.61,0,0,1,1.82,8.89A19.15,19.15,0,0,1,452,757.13l14.07,23.31Zm-19.5-34.29,10.43.18a8.53,8.53,0,0,0,3.54-.73,6.59,6.59,0,0,0,2.45-1.81,5.78,5.78,0,0,0,1.36-2.45,9.7,9.7,0,0,0,.45-2.63,9,9,0,0,0-.36-2.63,7.55,7.55,0,0,0-1.36-2.45,6.72,6.72,0,0,0-2.45-1.82,8.69,8.69,0,0,0-3.54-.72H429.5Z"/><path class="cls-1" d="M469.79,749a33.91,33.91,0,0,1,2.63-13.33A31.34,31.34,0,0,1,490,718.3a34.61,34.61,0,0,1,25.58,0,31.85,31.85,0,0,1,10.52,6.8,30.56,30.56,0,0,1,7.08,10.44,35.66,35.66,0,0,1,.09,26.66,30.56,30.56,0,0,1-7.08,10.44,31.85,31.85,0,0,1-10.52,6.8,35.84,35.84,0,0,1-25.58,0,33.4,33.4,0,0,1-10.43-6.8,32.11,32.11,0,0,1-7.08-10.53,33.84,33.84,0,0,1-2.54-13.33Zm16.15-.18a20.29,20.29,0,0,0,1.27,7.26,15.64,15.64,0,0,0,3.44,5.62,16.86,16.86,0,0,0,5.36,3.63,18.85,18.85,0,0,0,14.06,0,17.9,17.9,0,0,0,5.44-3.72,15.68,15.68,0,0,0,3.54-5.62,20.29,20.29,0,0,0,1.27-7.26,20.7,20.7,0,0,0-1.18-7.26,15.77,15.77,0,0,0-3.54-5.62,17.55,17.55,0,0,0-5.44-3.72,17.77,17.77,0,0,0-7.08-1.36,17,17,0,0,0-7,1.36,16.7,16.7,0,0,0-5.36,3.63,15.55,15.55,0,0,0-3.44,5.62,20.7,20.7,0,0,0-1.18,7.26Z"/><path class="cls-1" d="M601.35,716.85l-.09,35.47a36.08,36.08,0,0,1-2,12.61,25.67,25.67,0,0,1-5.71,9.25,23.9,23.9,0,0,1-8.8,5.72,37.28,37.28,0,0,1-23,0,23.94,23.94,0,0,1-8.81-5.72,27.59,27.59,0,0,1-5.71-9.25,36.37,36.37,0,0,1-2-12.7V716.94h15.24v34.92q0,8.35,3.27,12t9.53,3.63q6.25,0,9.52-3.72t3.27-12V716.85Z"/><path class="cls-1" d="M634.84,716.85h-.09a33.93,33.93,0,0,1,10.52,1.45,21.44,21.44,0,0,1,7.89,4.35,18.46,18.46,0,0,1,5,6.9,24.64,24.64,0,0,1,0,18.14,18.35,18.35,0,0,1-5,6.89,21.32,21.32,0,0,1-7.89,4.36,33.6,33.6,0,0,1-10.43,1.45h-9v20H610.62v-63.5Zm-.19,29.3h-.09q4.63,0,7-2a7.48,7.48,0,0,0,0-11.07c-1.57-1.32-3.87-2-6.9-2H626v15.06Z"/></svg>
